<svg version="1.2" xmlns="http://www.w3.org/2000/svg" viewBox="0 0 2100 2100" width="2100" height="2100">
	<style>
		.s0 { fill: #be3144 } 
	</style>
	<g id="Layer 1">
		<path id="&lt;Compound Path&gt;" fill-rule="evenodd" class="s0" d="m992.13 625.5c35.22-56.03 66.28-112.51 104.05-164.08 88.33-120.68 197.22-220.18 326.89-295.16 83.7-48.39 174.69-70.73 272.14-63.67 98.35 7.12 178.87 48.68 242.53 123.54 80.22 94.39 118.34 204.08 120.76 327.43 2.08 106.49-27.91 205.88-64.86 303.76-30.92 81.87-71.7 158.76-117.67 233.28-91.16 147.7-186.44 292.1-303.12 421.54-125.38 139.06-259.92 268.14-410.12 380-44.49 33.12-92.98 61.72-142.41 86.99-42.34 21.65-83.63 5.83-117.59-23.34-194.59-167.14-371.38-351.7-530.58-552.73-58.61-74-116.03-149.6-166.64-229.13-84.66-133.05-145.08-277.71-168.19-434.4-42.36-287.28 146.37-468.7 369.91-515.57 64.17-13.46 128.44-3.96 188.89 21.98 166.76 71.55 290.32 190.25 376.76 348.81 5.21 9.54 10.25 19.17 15.51 28.68 0.44 0.82 1.88 1.1 3.74 2.07zm-456.88 828.97c265.25-167.76 539.86-311.65 809.4-464.75-305.43 110.65-604.88 237.59-927.35 313.71 40.97 52.47 79.39 101.65 117.95 151.04zm463.58-460.71q1.41 3.06 2.8 6.12c8.91-2.94 17.94-5.55 26.7-8.85 66.84-25.18 133.6-50.6 200.46-75.75 190.34-71.61 380.15-144.78 576.45-199.28 34.94-9.71 69.23-22.02 103.21-34.75 8.95-3.35 20.56-11.51 22.52-19.54 8.83-36.04 10.54-72.87 5.17-115.22-25.83 13.06-47.14 23.83-68.45 34.57-61.57 31.06-122.4 63.72-184.85 92.89-207.33 96.81-415.29 192.32-622.92 288.55-20.74 9.61-40.74 20.8-61.09 31.26zm44.3-148.34c-245.86 90.98-479.4 206.74-716.16 322.46 11.48 17.95 20.98 32.78 29.09 45.46 55.65-31.38 107.43-62.07 160.53-90.25 156.12-82.82 312.76-164.63 469.18-246.88 19.19-10.1 38.23-20.52 57.36-30.79zm633.26 314.42q-2.73-2.15-5.46-4.3-196.89 108.42-393.76 216.84c19.4-0.47 36.4-6.03 53.32-11.82 83.4-28.54 166.84-57.03 250.15-85.92 6.45-2.25 13.5-6.19 17.57-11.45 26.48-34.12 52.21-68.83 78.18-103.35zm-1157.02-810.79c-96.81-37.96-298.15 53.26-324.94 146.02 108.06-48.56 215.86-97.01 324.94-146.02zm1168.58-99.97c-157.42-8.35-269.7 75.18-370.83 181.37q185.42-90.68 370.83-181.37zm-1036.7 1341.15c107.85-79.26 225.32-134.94 337.85-198.84q-1.78-3.39-3.56-6.78c-125.5 49.61-250.98 99.22-381.29 150.73 17.43 20.36 31.31 36.56 47 54.89zm-95.12-670.62q-1.49-3.05-3.02-6.11c-99.46 38.91-198.93 77.8-301.26 117.82 10.26 19.67 18.94 36.31 29.06 55.68 94.01-57.18 184.62-112.28 275.22-167.39zm1311.11-69.78q-3.09-1.73-6.2-3.46c-108.6 61.04-217.2 122.09-331.36 186.25 9.9 0.61 12.52 1.53 14.46 0.77 91.22-35.81 182.41-71.68 273.46-107.93 6.38-2.54 13.74-6.83 16.92-12.43 11.75-20.59 21.95-42.06 32.72-63.2zm-1436.69-47.45q-1.35-3.28-2.68-6.56c-79.79 25-159.57 50-241.02 75.5 8.34 22.24 15.76 42.06 23.95 63.92 75.85-45.86 147.8-89.36 219.75-132.86zm545.05 798.91q-0.71-1.69-1.42-3.36c-78.4 25.53-156.83 51.07-238.64 77.72 17.23 18.13 32.32 34.04 45.88 48.3 66.81-42.19 130.48-82.43 194.18-122.66zm872.06-1272.92c-5.13-7.65-8.23-13.92-12.81-18.83-25.82-27.71-27.99-27.22-60.48-8.07-35.23 20.75-71.32 40-106.89 60.14-6.09 3.44-11.48 8.1-17.18 12.19q1.27 1.89 2.53 3.79c64-16.17 128-32.33 194.83-49.22zm-1192.43 75.98c-49.44 32.76-96.87 64.18-144.3 95.58q1.44 2.85 2.88 5.67c61.49-21.67 122.97-43.36 190.34-67.12-20.45-14.27-34.98-24.4-48.92-34.13zm233.62 231.64c-37.25 26.65-70.86 50.67-104.45 74.7q1.56 3.03 3.16 6.07c41.32-12.91 82.64-25.81 127.04-39.69-9.93-15.83-16.82-26.81-25.75-41.08zm-103.41-124.99c-39.6 24.62-75.34 46.85-111.06 69.09q1.72 3.25 3.47 6.5c44.41-13.39 88.83-26.79 137.81-41.56-11.57-13.02-20.09-22.61-30.22-34.03zm-634.65 119.36c39.11-24.68 74.19-46.82 109.28-68.97-29.67 3.96-56.85 12.99-83.88 22.5-26.61 9.37-26.55 9.59-25.4 46.47zm952.99 57.34q1.9 2.64 3.8 5.28 77.84-32.25 155.66-64.51-1.86-4.85-3.7-9.7c-48.34 17.59-96.81 34.85-144.85 53.23-4.93 1.88-7.34 10.3-10.91 15.7zm-945.12 85.16c29.52-20.9 56-39.62 82.46-58.34q-1.62-2.9-3.24-5.79c-27.94 10.3-55.91 20.61-85.6 31.55 2.07 10.56 3.82 19.5 6.38 32.58zm724.17 1044.16c11.09 9.35 18.69 15.77 26.93 22.73 19.37-17.26 36.55-32.54 53.74-47.84q-1.57-2.15-3.13-4.3c-24.42 9.26-48.82 18.51-77.54 29.41zm432.98-263.07c22.05 4.78 38.52-0.27 44.22-24.32q-22.11 12.17-44.22 24.32z"/>
	</g>
</svg>